<svg width="32" height="32" viewBox="0 0 100 100" xmlns="http://www.w3.org/2000/svg">
  <!-- Modern lightning bolt with curved segments for journey flow -->
  <path d="M 35 15
           L 35 40
           Q 35 42, 37 43
           C 38 44, 39 44, 40 43
           L 48 40
           L 48 55
           Q 48 57, 50 58
           C 51 59, 52 59, 53 58
           L 65 52
           L 55 52
           L 55 35
           Q 55 33, 53 32
           C 52 31, 51 31, 50 32
           L 42 35
           L 42 15
           Q 42 13, 40 12
           C 38 11, 36 11, 35 13
           L 35 15"
        fill="#28a745"
        stroke="none"
        stroke-linejoin="round"
        stroke-linecap="round"/>
</svg>